<svg width="9" height="16" viewBox="0 0 9 16" fill="none" xmlns="http://www.w3.org/2000/svg">
<path d="M5.5 7H5.25V3.5H7.75C8.164 3.5 8.5 3.1645 8.5 2.75C8.5 2.3355 8.164 2 7.75 2H5.25V0.75C5.25 0.3355 4.914 0 4.5 0C4.086 0 3.75 0.3355 3.75 0.75V2H3.25C1.458 2 0 3.458 0 5.25C0 7.042 1.458 8.5 3.25 8.5H3.75V12.5H1.25C0.836 12.5 0.5 12.8355 0.5 13.25C0.5 13.6645 0.836 14 1.25 14H3.75V15.25C3.75 15.6645 4.086 16 4.5 16C4.914 16 5.25 15.6645 5.25 15.25V14H5.5C7.4295 14 9 12.43 9 10.5C9 8.57 7.4295 7 5.5 7ZM3.25 7C2.285 7 1.5 6.215 1.5 5.25C1.5 4.285 2.285 3.5 3.25 3.5H3.75V7H3.25ZM5.5 12.5H5.25V8.5H5.5C6.603 8.5 7.5 9.397 7.5 10.5C7.5 11.603 6.603 12.5 5.5 12.5Z" fill="#C5C7D3"/>
</svg>
