<svg width="24" height="22" viewBox="0 0 24 22" fill="none" xmlns="http://www.w3.org/2000/svg">
<path d="M7.91209 5.41317H2.46154C1.11355 5.41317 0 6.5509 0 7.92814V12.4192C0 13.7964 1.11355 14.9341 2.46154 14.9341H3.75092L4.86447 21.2814C4.92308 21.7006 5.27472 22 5.68498 22H8.14652C8.67399 22 9.02564 21.521 8.96703 21.0419L7.91209 14.994C10.0806 14.994 12.1319 15.6527 13.9487 16.9102L16 18.3473V2L13.9487 3.43713C12.1905 4.75449 10.0806 5.41317 7.91209 5.41317Z" fill="#C5C7D3"/>
<path d="M20.8454 7.18228V1.27734C20.8454 0.242459 19.6701 -0.366296 18.8041 0.24246L18 0.79034V20.2097L18.8041 20.7575C19.6701 21.3663 20.8454 20.7575 20.8454 19.7227V13.8177C22.5773 13.696 24 12.2958 24 10.5304C24 8.76505 22.5773 7.30403 20.8454 7.18228Z" fill="#C5C7D3"/>
</svg>
