<svg width="18" height="18" viewBox="0 0 18 18" fill="none" xmlns="http://www.w3.org/2000/svg">
<path d="M17.2989 8.29895H15.5747C15.2526 5.21053 12.7895 2.74737 9.70105 2.42526V0.701053C9.70105 0.322105 9.37895 0 9 0C8.62105 0 8.29895 0.322105 8.29895 0.701053V2.42526C5.21053 2.74737 2.74737 5.21053 2.42526 8.29895H0.701053C0.322105 8.29895 0 8.62105 0 9C0 9.37895 0.322105 9.70105 0.701053 9.70105H2.42526C2.74737 12.7895 5.21053 15.2526 8.29895 15.5747V17.2989C8.29895 17.6779 8.62105 18 9 18C9.37895 18 9.70105 17.6779 9.70105 17.2989V15.5747C12.7895 15.2526 15.2526 12.7895 15.5747 9.70105H17.2989C17.6779 9.70105 18 9.37895 18 9C18 8.62105 17.6779 8.29895 17.2989 8.29895ZM9 14.2105C6.12 14.2105 3.78947 11.88 3.78947 9C3.78947 6.12 6.12 3.78947 9 3.78947C11.88 3.78947 14.2105 6.12 14.2105 9C14.2105 11.88 11.88 14.2105 9 14.2105Z" fill="#C5C7D3"/>
<path d="M9.00001 8.52633C9.92087 8.52633 10.6674 7.77982 10.6674 6.85896C10.6674 5.9381 9.92087 5.19159 9.00001 5.19159C8.07915 5.19159 7.33264 5.9381 7.33264 6.85896C7.33264 7.77982 8.07915 8.52633 9.00001 8.52633Z" fill="#C5C7D3"/>
<path d="M10.7052 8.84845C10.2505 9.24634 9.66314 9.49266 8.99998 9.49266C8.33683 9.49266 7.76841 9.24634 7.29472 8.84845C6.57472 9.45477 6.21472 10.459 6.21472 11.6148C6.21472 12.4863 11.7663 12.4863 11.7663 11.6148C11.7852 10.459 11.4252 9.45477 10.7052 8.84845Z" fill="#C5C7D3"/>
</svg>
