<svg width="24" height="24" viewBox="0 0 24 24" fill="none" xmlns="http://www.w3.org/2000/svg">
<path d="M5.94043 11.7H10.0417C9.86592 11.8918 9.74043 12.1475 9.74043 12.4442V18.017C9.74043 18.4801 10.046 18.8437 10.3721 19.02H5.94043V11.7ZM18.3804 19.02H11.4892C11.525 19.0007 11.56 18.9793 11.594 18.9559L11.594 18.9559L15.6416 16.1693C15.6417 16.1693 15.6417 16.1693 15.6417 16.1693C15.9536 15.9546 16.1331 15.6019 16.1331 15.2304C16.1331 14.8485 15.9386 14.5002 15.6352 14.2915L15.6348 14.2912L11.8617 11.7H18.3804V19.02ZM10.6164 18.5837C10.4062 18.473 10.2404 18.2547 10.2404 18.017V12.4442C10.2404 12.2064 10.4065 11.9882 10.6167 11.8775L10.6164 18.5837Z" fill="#C5C7D3" stroke="#C5C7D3"/>
<path d="M12.02 14.6126L12.9181 15.2307L12.02 15.8487V14.6126Z" fill="#C5C7D3" stroke="#C5C7D3"/>
<path d="M23.5 2.56V4.62H0.5V2.56C0.5 1.42238 1.42238 0.5 2.56 0.5H21.44C22.5776 0.5 23.5 1.42238 23.5 2.56ZM22.3774 2.98656C22.3774 2.21558 21.7522 1.59056 20.9811 1.59056C20.2105 1.59056 19.5854 2.21581 19.5854 2.98656C19.5854 3.75719 20.21 4.38256 20.9811 4.38256C21.7522 4.38256 22.3774 3.75754 22.3774 2.98656ZM19.1774 2.98656C19.1774 2.21558 18.5522 1.59056 17.7811 1.59056C17.0105 1.59056 16.3854 2.21581 16.3854 2.98656C16.3854 3.75719 17.01 4.38256 17.7811 4.38256C18.5522 4.38256 19.1774 3.75754 19.1774 2.98656ZM15.9774 2.98656C15.9774 2.21558 15.3522 1.59056 14.5811 1.59056C13.8105 1.59056 13.1854 2.21581 13.1854 2.98656C13.1854 3.75719 13.81 4.38256 14.5811 4.38256C15.3522 4.38256 15.9774 3.75754 15.9774 2.98656ZM7.36 2.06H2.24C1.61058 2.06 1.1 2.57058 1.1 3.2C1.1 3.82942 1.61058 4.34 2.24 4.34H7.36C7.98942 4.34 8.5 3.82942 8.5 3.2C8.5 2.57058 7.98942 2.06 7.36 2.06Z" fill="#C5C7D3" stroke="#C5C7D3"/>
<path d="M0.5 21.44V6.90002H23.5V21.44C23.5 22.5776 22.5776 23.5 21.44 23.5H2.56C1.42238 23.5 0.5 22.5776 0.5 21.44ZM19.52 21.3C20.1494 21.3 20.66 20.7894 20.66 20.16V10.56C20.66 9.9306 20.1494 9.42002 19.52 9.42002H4.8C4.17058 9.42002 3.66 9.9306 3.66 10.56V20.16C3.66 20.7894 4.17058 21.3 4.8 21.3H19.52Z" fill="#C5C7D3" stroke="#C5C7D3"/>
</svg>
