<svg width="24" height="24" viewBox="0 0 24 24" fill="none" xmlns="http://www.w3.org/2000/svg">
<path d="M4.16512 8.21041L3.94032 8.39183L3.98521 8.6772C3.99145 8.71685 3.99971 8.75088 4.0059 8.77466C4.009 8.78655 4.01206 8.7977 4.01428 8.80574L4.01861 8.82162C4.00666 9.31328 3.60614 9.7075 3.11039 9.7075C2.60797 9.7075 2.20264 9.3013 2.20264 8.799C2.20264 8.29589 2.60803 7.8905 3.11114 7.8905C3.21013 7.8905 3.31555 7.91356 3.43236 7.95814L3.70085 8.06061L3.92454 7.88018L7.98429 4.60568L8.20877 4.42462L8.16444 4.13965C8.15798 4.09811 8.1492 4.06262 8.14256 4.03777C8.13924 4.02533 8.13596 4.01381 8.13357 4.00542L8.12948 3.99096C8.14286 3.50088 8.54392 3.10775 9.03764 3.10775C9.46046 3.10775 9.81177 3.41098 9.90002 3.84265L9.95702 4.12145L10.2258 4.21482L13.8986 5.49057L14.1677 5.58406L14.3853 5.40016C14.5609 5.25184 14.7578 5.1695 14.9641 5.1695C15.0704 5.1695 15.181 5.19353 15.2959 5.23949L15.5643 5.34681L15.7912 5.1679L19.8277 1.98565L20.0478 1.81216L20.0146 1.5339C20.0091 1.48761 20.0001 1.44849 19.9929 1.42101C19.9893 1.4072 19.9858 1.39483 19.9832 1.38561L19.9804 1.37627C19.9975 0.890378 20.399 0.5 20.8899 0.5C21.3926 0.5 21.7984 0.906546 21.7984 1.4085C21.7984 1.91045 21.3926 2.317 20.8899 2.317C20.781 2.317 20.6695 2.2933 20.5562 2.24852L20.2887 2.14277L20.0629 2.32083L16.0279 5.50158L15.8111 5.67244L15.8402 5.9469C15.845 5.99259 15.8533 6.03134 15.8601 6.05929C15.8643 6.07651 15.8696 6.09588 15.8729 6.10767C15.8572 6.59507 15.4563 6.9865 14.9634 6.9865C14.5424 6.9865 14.189 6.68278 14.101 6.25299L14.044 5.97444L13.7754 5.88101L10.1042 4.60376L9.83382 4.5097L9.61583 4.69523C9.44245 4.84279 9.24625 4.92475 9.03689 4.92475C8.93851 4.92475 8.83231 4.90163 8.71567 4.85711L8.44708 4.75461L8.22337 4.93516L4.16512 8.21041ZM19.9742 1.354C19.9742 1.35403 19.9744 1.35472 19.9747 1.35602L19.9742 1.354ZM15.8783 6.12781C15.8782 6.12776 15.8781 6.12727 15.8779 6.12636L15.8783 6.12781Z" fill="#C5C7D3" stroke="#C5C7D3"/>
<path d="M22.5055 21.9564V22.4564H23.0055H23.5V22.6676H0.5V22.4564H0.9945H1.4945V21.9564V13.9536H4.7275V21.9564V22.4564H5.2275H6.92025H7.42025V21.9564V9.54585H10.6532V21.9564V22.4564H11.1532H12.8468H13.3468V21.9564V11.2326H16.5798V21.9564V22.4564H17.0798H18.7725H19.2725V21.9564V7.16235H22.5055V21.9564Z" fill="#C5C7D3" stroke="#C5C7D3"/>
</svg>
