<svg width="15" height="16" viewBox="0 0 15 16" fill="none" xmlns="http://www.w3.org/2000/svg">
<path d="M0.600098 14.6666C0.600098 15.3955 1.20454 15.9999 1.93342 15.9999H13.6667C14.3956 15.9999 15 15.3955 15 14.6666V5.33331H0.600098V14.6666ZM11.2667 7.46663H12.8667V9.06662H11.2667V7.46663ZM11.2667 9.59996H12.8667V11.1999H11.2667V9.59996ZM9.13338 7.46663H10.7334V9.06662H9.13338V7.46663ZM9.13338 9.59996H10.7334V11.1999H9.13338V9.59996ZM9.13338 11.7333H10.7334V13.3333H9.13338V11.7333ZM7.00006 7.46663H8.60005V9.06662H7.00006V7.46663ZM7.00006 9.59996H8.60005V11.1999H7.00006V9.59996ZM7.00006 11.7333H8.60005V13.3333H7.00006V11.7333ZM4.86674 7.46663H6.46673V9.06662H4.86674V7.46663ZM4.86674 9.59996H6.46673V11.1999H4.86674V9.59996ZM4.86674 11.7333H6.46673V13.3333H4.86674V11.7333ZM2.73342 9.59996H4.33341V11.1999H2.73342V9.59996ZM2.73342 11.7333H4.33341V13.3333H2.73342V11.7333Z" fill="#C5C7D3"/>
<path d="M10.4669 2.66665C10.7691 2.66665 11.0003 2.43554 11.0003 2.13332V1.33333V0.53333C11.0003 0.23111 10.7691 0 10.4669 0C10.1647 0 9.93359 0.23111 9.93359 0.53333V1.33333V2.13332C9.93359 2.43554 10.1825 2.66665 10.4669 2.66665Z" fill="#C5C7D3"/>
<path d="M13.6667 1.33331H13.0267H11.5334V2.13331C11.5334 2.71997 11.0534 3.19997 10.4667 3.19997C9.88004 3.19997 9.40005 2.71997 9.40005 2.13331V1.33331H8.33339H7.26673H6.20007V2.13331C6.20007 2.71997 5.72007 3.19997 5.1334 3.19997C4.54674 3.19997 4.06674 2.71997 4.06674 2.13331V1.33331H1.93342C1.20454 1.33331 0.600098 1.93775 0.600098 2.66664V4.79996H15V2.66664C15 1.93775 14.4134 1.33331 13.6667 1.33331Z" fill="#C5C7D3"/>
<path d="M5.13343 2.66665C5.43565 2.66665 5.66676 2.43554 5.66676 2.13332V1.33333V0.53333C5.66676 0.23111 5.43565 0 5.13343 0C4.83121 0 4.6001 0.23111 4.6001 0.53333V1.33333V2.13332C4.6001 2.43554 4.83121 2.66665 5.13343 2.66665Z" fill="#C5C7D3"/>
</svg>
