<svg width="16" height="16" viewBox="0 0 16 16" fill="none" xmlns="http://www.w3.org/2000/svg">
<path d="M14.6344 3.39539C13.6479 3.88674 12.5936 4.22819 11.5063 4.40845C11.6985 5.44688 11.7998 6.50008 11.8091 7.55609H15.9997C15.9544 6.06671 15.4804 4.62204 14.6344 3.39539Z" fill="#C5C7D3"/>
<path d="M2.06738 12.6299C2.08644 12.6542 2.10473 12.6791 2.12406 12.7031C2.16794 12.7575 2.21297 12.8108 2.25821 12.8639C2.31146 12.9264 2.36523 12.9884 2.4203 13.049C2.46681 13.1003 2.51422 13.1505 2.56198 13.2004C2.6189 13.2598 2.67663 13.3183 2.73516 13.3759C2.78395 13.4237 2.83334 13.4708 2.88336 13.5172C2.94374 13.5733 3.00493 13.6285 3.06693 13.6826C3.11821 13.7273 3.17001 13.7714 3.22234 13.8148C3.28551 13.867 3.3495 13.9182 3.41431 13.9683C3.46805 14.01 3.52207 14.0512 3.57682 14.0915C3.64286 14.14 3.70986 14.1871 3.77734 14.2335C3.83309 14.2719 3.88897 14.3099 3.94564 14.3468C4.01433 14.3915 4.08406 14.4345 4.15406 14.477C4.21186 14.512 4.26964 14.5471 4.32832 14.5806C4.39949 14.6214 4.47174 14.6601 4.54412 14.6985C4.6036 14.7301 4.66298 14.7619 4.72326 14.792C4.79668 14.8286 4.87119 14.863 4.94574 14.8973C5.00692 14.9255 5.06788 14.9541 5.12981 14.9807C5.20554 15.0132 5.28234 15.0432 5.35909 15.0733C5.42136 15.0977 5.48332 15.1229 5.54622 15.1458C5.62434 15.1741 5.7035 15.1997 5.78253 15.2256C5.84573 15.2463 5.90855 15.268 5.97232 15.2871C6.05268 15.3112 6.13406 15.3321 6.21525 15.3536C6.27893 15.3705 6.34219 15.3886 6.40633 15.4039C6.49016 15.4239 6.57496 15.4403 6.65954 15.4575C6.70404 15.4666 6.74836 15.4764 6.79306 15.4847C6.01534 14.7455 5.38345 13.4045 4.99932 11.7004C3.98249 11.8681 2.99507 12.1811 2.06738 12.6299Z" fill="#C5C7D3"/>
<path d="M8.20183 15.6158C9.33954 15.6158 10.3573 13.9822 10.8983 11.6175C9.11048 11.3515 7.29317 11.3515 5.50537 11.6175C6.04631 13.9822 7.06411 15.6158 8.20183 15.6158Z" fill="#C5C7D3"/>
<path d="M1.76912 12.2205C2.75564 11.7292 3.80993 11.3877 4.8972 11.2075C4.70503 10.169 4.60374 9.11583 4.59448 8.05981H0.403809C0.449111 9.54919 0.923174 10.9939 1.76912 12.2205Z" fill="#C5C7D3"/>
<path d="M0.403809 7.55609H4.59448C4.60374 6.50008 4.70503 5.44689 4.8972 4.40847C3.80993 4.22821 2.75564 3.88675 1.76912 3.39539C0.923175 4.62204 0.449112 6.06671 0.403809 7.55609Z" fill="#C5C7D3"/>
<path d="M9.99763 15.4039C10.0617 15.3887 10.1249 15.3706 10.1884 15.3537C10.2697 15.3322 10.3511 15.3112 10.4316 15.2871C10.4953 15.268 10.5582 15.2463 10.6214 15.2256C10.7004 15.1997 10.7796 15.1742 10.8577 15.1458C10.9206 15.1229 10.9825 15.0978 11.0448 15.0733C11.1215 15.0432 11.1983 15.0132 11.2741 14.9807C11.336 14.9541 11.397 14.9255 11.4582 14.8973C11.5327 14.863 11.6072 14.8287 11.6806 14.792C11.7409 14.762 11.8003 14.7301 11.8598 14.6985C11.9322 14.6601 12.0044 14.6214 12.0756 14.5806C12.1343 14.5471 12.192 14.512 12.2498 14.477C12.3198 14.4345 12.3896 14.3915 12.4583 14.3468C12.5149 14.31 12.5708 14.2719 12.6266 14.2335C12.6941 14.1871 12.7611 14.14 12.8272 14.0914C12.8818 14.0513 12.9357 14.0101 12.9893 13.9685C13.0542 13.9182 13.1184 13.8669 13.1818 13.8146C13.2341 13.7713 13.2857 13.7274 13.3369 13.6827C13.3989 13.6285 13.4601 13.5734 13.5205 13.5172C13.5705 13.4708 13.6199 13.4237 13.6687 13.376C13.7274 13.3185 13.7851 13.26 13.8419 13.2004C13.8897 13.1505 13.9371 13.1003 13.9836 13.049C14.0387 12.9884 14.0924 12.9264 14.1457 12.8639C14.1909 12.8108 14.2359 12.7575 14.2798 12.7031C14.2992 12.6791 14.3174 12.6542 14.3365 12.63C13.4088 12.1811 12.4214 11.8681 11.4046 11.7004C11.0204 13.4045 10.3886 14.7455 9.61084 15.4847C9.65546 15.4764 9.69968 15.4666 9.74411 15.4576C9.8288 15.4404 9.91368 15.4239 9.99763 15.4039Z" fill="#C5C7D3"/>
<path d="M15.9997 8.05981H11.8091C11.7998 9.11582 11.6985 10.169 11.5063 11.2074C12.5936 11.3877 13.6479 11.7291 14.6344 12.2205C15.4804 10.9939 15.9544 9.54919 15.9997 8.05981Z" fill="#C5C7D3"/>
<path d="M11.0028 4.492C10.0759 4.63314 9.13949 4.7032 8.20187 4.70156C7.26426 4.70319 6.3279 4.63313 5.40097 4.492C5.21049 5.50252 5.10916 6.52782 5.09814 7.55607H11.3056C11.2946 6.52782 11.1932 5.50252 11.0028 4.492Z" fill="#C5C7D3"/>
<path d="M5.40097 11.1239C7.25779 10.8445 9.14597 10.8445 11.0028 11.1239C11.1933 10.1134 11.2946 9.08807 11.3056 8.05981H5.09814C5.10917 9.08806 5.21051 10.1133 5.40097 11.1239Z" fill="#C5C7D3"/>
<path d="M8.20183 0C7.06411 0 6.04631 1.63366 5.50537 3.99833C6.39789 4.13261 7.29927 4.19929 8.20183 4.1978C9.10438 4.19928 10.0058 4.1326 10.8983 3.99833C10.3573 1.63368 9.33954 0 8.20183 0Z" fill="#C5C7D3"/>
<path d="M14.1457 2.75196C14.0924 2.68946 14.0387 2.62748 13.9836 2.56685C13.9371 2.51562 13.8897 2.46536 13.8419 2.41552C13.785 2.35608 13.7273 2.29755 13.6687 2.23994C13.62 2.19214 13.5706 2.14505 13.5205 2.09867C13.4601 2.04251 13.3989 1.98736 13.3369 1.93322C13.2857 1.88858 13.234 1.84461 13.1818 1.80132C13.1185 1.74891 13.0543 1.69759 12.9893 1.64737C12.9357 1.60578 12.8818 1.5646 12.8272 1.52445C12.7611 1.4759 12.6941 1.42877 12.6266 1.38237C12.5708 1.34402 12.5149 1.30593 12.4583 1.26906C12.3896 1.22439 12.3198 1.18141 12.2498 1.13892C12.192 1.10385 12.1343 1.0688 12.0756 1.03525C12.0044 0.994519 11.9322 0.955802 11.8598 0.91735C11.8003 0.885742 11.7409 0.853933 11.6806 0.823863C11.6072 0.787235 11.5327 0.752884 11.4582 0.718569C11.397 0.690427 11.336 0.661791 11.2741 0.635207C11.1984 0.60268 11.1216 0.57271 11.0448 0.54258C10.9825 0.518129 10.9206 0.492976 10.8577 0.470123C10.7796 0.441736 10.7004 0.416196 10.6214 0.390287C10.5582 0.369584 10.4954 0.34792 10.4316 0.328795C10.3511 0.304689 10.2697 0.28372 10.1884 0.26218C10.1249 0.245332 10.0617 0.227235 9.99764 0.212005C9.91368 0.19202 9.8288 0.175541 9.74411 0.158344C9.69968 0.149323 9.65545 0.139487 9.61084 0.131226C10.3886 0.870412 11.0204 2.21139 11.4046 3.9155C12.4214 3.74783 13.4088 3.43477 14.3365 2.98594C14.3174 2.96173 14.2992 2.93679 14.2798 2.91283C14.2359 2.85837 14.1909 2.80505 14.1457 2.75196Z" fill="#C5C7D3"/>
<path d="M6.40633 0.211988C6.34219 0.227258 6.27892 0.245379 6.21524 0.262248C6.13405 0.28374 6.05268 0.304716 5.97231 0.328801C5.90855 0.347926 5.84571 0.369591 5.78253 0.390294C5.70349 0.416203 5.62433 0.441742 5.54622 0.47013C5.48331 0.492983 5.42135 0.518132 5.35908 0.542587C5.28234 0.572717 5.20554 0.6027 5.1298 0.635214C5.06788 0.661798 5.00692 0.690434 4.94574 0.718576C4.87118 0.752887 4.79668 0.787242 4.72326 0.82387C4.66298 0.85394 4.6036 0.885753 4.54411 0.917357C4.47174 0.955809 4.39949 0.994529 4.32832 1.03525C4.26964 1.06881 4.21186 1.10386 4.15405 1.13893C4.08406 1.18142 4.01432 1.2244 3.94564 1.26907C3.88896 1.30594 3.83309 1.34403 3.77734 1.38237C3.70986 1.42878 3.64286 1.47586 3.57681 1.5244C3.52207 1.56465 3.46804 1.60589 3.41431 1.64758C3.34961 1.69778 3.28562 1.74896 3.22233 1.80113C3.16996 1.84446 3.11816 1.88852 3.06692 1.93331C3.00491 1.98741 2.94372 2.04253 2.88335 2.09868C2.8334 2.14513 2.784 2.19222 2.73516 2.23995C2.6765 2.29742 2.61878 2.35595 2.56198 2.41553C2.51422 2.46538 2.46681 2.51564 2.4203 2.56686C2.36523 2.62749 2.31146 2.68947 2.25821 2.75197C2.21298 2.80507 2.16794 2.85839 2.12406 2.91283C2.10473 2.93679 2.08644 2.96173 2.06738 2.98594C2.99506 3.43478 3.98248 3.74785 4.99931 3.91552C5.38344 2.21142 6.01533 0.870412 6.79305 0.131226C6.74834 0.139507 6.70403 0.149323 6.65953 0.158384C6.57496 0.175585 6.49016 0.192017 6.40633 0.211988Z" fill="#C5C7D3"/>
</svg>
