<svg width="22" height="22" viewBox="0 0 22 22" fill="none" xmlns="http://www.w3.org/2000/svg">
<path fill-rule="evenodd" clip-rule="evenodd" d="M13.6686 11.8908C13.1767 11.3988 13.1774 10.6005 13.6686 10.1093L18.595 5.1829C19.0869 4.69096 19.4857 4.85838 19.4857 5.54896V6.28605C19.4857 6.98017 20.0437 7.54286 20.7429 7.54286C21.4372 7.54286 22 6.97592 22 6.28035V1.2625C22 0.565242 21.4331 0 20.7375 0H15.7196C15.0224 0 14.4571 0.558002 14.4571 1.25714C14.4571 1.95144 15.0234 2.51429 15.714 2.51429H16.451C17.1452 2.51429 17.3083 2.9138 16.8171 3.40504L11.8908 8.33138C11.3988 8.82333 10.6005 8.82261 10.1093 8.33138L5.1829 3.40504C4.69096 2.91309 4.85838 2.51429 5.54896 2.51429H6.28605C6.98017 2.51429 7.54286 1.95628 7.54286 1.25714C7.54286 0.562842 6.97592 0 6.28035 0H1.2625C0.565242 0 0 0.56694 0 1.2625V6.28035C0 6.97761 0.558002 7.54286 1.25714 7.54286C1.95144 7.54286 2.51429 6.97663 2.51429 6.28605V5.54896C2.51429 4.85485 2.9138 4.69167 3.40504 5.1829L8.33138 10.1093C8.82333 10.6012 8.82261 11.3995 8.33138 11.8908L3.40504 16.8171C2.91309 17.309 2.51429 17.1416 2.51429 16.451V15.714C2.51429 15.0198 1.95628 14.4571 1.25714 14.4571C0.562842 14.4571 0 15.0241 0 15.7196V20.7375C0 21.4348 0.56694 22 1.2625 22H6.28035C6.97761 22 7.54286 21.442 7.54286 20.7429C7.54286 20.0486 6.97663 19.4857 6.28605 19.4857H5.54896C4.85485 19.4857 4.69167 19.0862 5.1829 18.595L10.1093 13.6686C10.6012 13.1767 11.3995 13.1774 11.8908 13.6686L16.8171 18.595C17.309 19.0869 17.1416 19.4857 16.451 19.4857H15.714C15.0198 19.4857 14.4571 20.0437 14.4571 20.7429C14.4571 21.4372 15.0241 22 15.7196 22H20.7375C21.4348 22 22 21.4331 22 20.7375V15.7196C22 15.0224 21.442 14.4571 20.7429 14.4571C20.0486 14.4571 19.4857 15.0234 19.4857 15.714V16.451C19.4857 17.1452 19.0862 17.3083 18.595 16.8171L13.6686 11.8908Z" fill="#858585"/>
</svg>
