<svg width="24" height="24" viewBox="0 0 24 24" fill="none" xmlns="http://www.w3.org/2000/svg">
<path d="M19.1661 7.69249L19.1312 7.73535L19.1065 7.78482C19.0327 7.93227 18.9261 8.21567 19.0769 8.52646C19.2166 8.82961 19.3346 9.13481 19.4582 9.45615C19.5504 9.75407 19.8279 9.95891 20.1273 9.97292L23.114 10.2741C23.1142 10.2741 23.1145 10.2742 23.1148 10.2742C23.3333 10.2976 23.5 10.481 23.5 10.7116V13.2632C23.5 13.4937 23.3332 13.6772 23.1148 13.7006C23.1145 13.7006 23.1142 13.7006 23.114 13.7006L20.1522 14.0018C19.8439 14.0164 19.5589 14.2333 19.4756 14.5459C19.4002 14.8079 19.2942 15.0356 19.1645 15.314C19.1443 15.3575 19.1234 15.4022 19.1021 15.4485C19.0011 15.6576 18.9492 16.0203 19.2033 16.2968L21.0833 18.6029C21.0836 18.6033 21.084 18.6038 21.0844 18.6043C21.2194 18.7746 21.2011 19.0434 21.0443 19.2001L19.2254 21.0191C19.0518 21.1927 18.8089 21.2014 18.6297 21.0592C18.6292 21.0588 18.6286 21.0584 18.6281 21.058L16.3075 19.1661L16.2646 19.1312L16.2152 19.1065C16.0677 19.0327 15.7843 18.9261 15.4735 19.0769C15.1704 19.2166 14.8652 19.3346 14.5439 19.4582C14.245 19.5507 14.0399 19.8295 14.027 20.13L13.7509 23.1165C13.7267 23.3341 13.5437 23.5 13.3137 23.5H10.7368C10.5063 23.5 10.3228 23.3332 10.2994 23.1148C10.2994 23.1145 10.2994 23.1142 10.2994 23.114L9.99817 20.1522C9.98361 19.8439 9.76668 19.5589 9.45414 19.4756C9.19207 19.4002 8.96438 19.2942 8.68599 19.1645C8.64248 19.1443 8.59774 19.1234 8.55143 19.102C8.34234 19.0011 7.97969 18.9492 7.70321 19.2033L5.39713 21.0833C5.39665 21.0836 5.39617 21.084 5.39569 21.0844C5.22532 21.2194 4.95662 21.2011 4.79987 21.0443L2.98092 19.2254C2.80726 19.0517 2.79859 18.8088 2.94086 18.6296C2.94124 18.6291 2.94163 18.6286 2.94201 18.6281L4.83386 16.3075L4.8688 16.2646L4.89353 16.2152C4.96726 16.0677 5.0739 15.7843 4.92308 15.4735C4.78344 15.1704 4.66541 14.8652 4.54181 14.5439C4.44957 14.2459 4.17215 14.0411 3.87274 14.0271L0.886027 13.7259C0.885744 13.7259 0.885461 13.7258 0.885179 13.7258C0.666722 13.7024 0.5 13.519 0.5 13.2884V10.7116C0.5 10.481 0.66675 10.2976 0.885234 10.2742C0.885498 10.2741 0.885763 10.2741 0.886027 10.2741L3.84777 9.9729C4.15613 9.95835 4.44111 9.74139 4.52441 9.42882C4.59983 9.16678 4.70585 8.93911 4.83548 8.66074C4.85574 8.61723 4.87657 8.57248 4.89796 8.52617C4.99888 8.31707 5.05079 7.95443 4.79675 7.67797L2.9156 5.37042C2.78091 5.20042 2.79883 4.93252 2.95465 4.77562L4.77212 2.98339L4.77213 2.98339L4.77461 2.98092C4.94826 2.80727 5.19117 2.79859 5.37037 2.94082L7.69249 4.83386L7.73535 4.8688L7.78482 4.89353C7.93227 4.96725 8.21566 5.0739 8.52646 4.92309C8.8296 4.78345 9.1348 4.66542 9.45613 4.54181C9.75407 4.44957 9.95891 4.17215 9.97292 3.87274L10.2741 0.886027C10.2741 0.885744 10.2742 0.885462 10.2742 0.885179C10.2976 0.666722 10.481 0.5 10.7116 0.5H13.2884C13.519 0.5 13.7024 0.66675 13.7258 0.885234C13.7259 0.885498 13.7259 0.885763 13.7259 0.886027L14.0271 3.84777C14.0416 4.15613 14.2586 4.44112 14.5712 4.52441C14.8332 4.59984 15.0609 4.70585 15.3393 4.83548C15.3828 4.85573 15.4275 4.87657 15.4738 4.89795C15.6829 4.99888 16.0456 5.0508 16.3221 4.79674L18.6281 2.91675C18.6286 2.91638 18.6291 2.91601 18.6295 2.91564C18.7996 2.78088 19.0675 2.79882 19.2244 2.95472C19.2248 2.95503 19.2251 2.95534 19.2254 2.95566L21.0166 4.77213L21.0191 4.77461C21.1927 4.94826 21.2014 5.19117 21.0592 5.37037C21.0588 5.37087 21.0584 5.37137 21.058 5.37186L19.1661 7.69249ZM15.5937 13.1603L15.5937 13.1603L15.5979 13.1578C16.4442 12.6339 16.4442 11.3661 15.5979 10.8422L15.5979 10.8422L15.5937 10.8397L11.0464 8.08599L11.0464 8.08597L11.0417 8.08322C10.1598 7.56207 8.99895 8.19406 8.99895 9.24632V14.7537C8.99895 15.8139 10.1507 16.4788 11.0506 15.9114L15.5937 13.1603Z" fill="#C5C7D3" stroke="#C5C7D3"/>
</svg>
