<svg width="8" height="16" viewBox="0 0 8 16" fill="none" xmlns="http://www.w3.org/2000/svg">
<path fill-rule="evenodd" clip-rule="evenodd" d="M0 2.81365H1.57962V0H6.42038V2.81365H8V16H0V2.81365ZM4.73885 3.9895H6.42038V5.45932H4.73885V3.9895ZM4.73885 11.7585H6.42038V13.2283H4.73885V11.7585ZM1.57962 11.7585H3.26115V13.2283H1.57962V11.7585ZM4.73885 9.15486H6.42038V10.6247H4.73885V9.15486ZM1.57962 9.15486H3.26115V10.6247H1.57962V9.15486ZM4.73885 6.59318H6.42038V8.021H4.73885V6.59318ZM1.57962 6.59318H3.26115V8.021H1.57962V6.59318ZM1.57962 3.9895H3.26115V5.45932H1.57962V3.9895Z" fill="#C5C7D3"/>
</svg>
