<svg width="24" height="24" viewBox="0 0 24 24" fill="none" xmlns="http://www.w3.org/2000/svg">
<mask id="path-1-inside-1_1_45" fill="white">
<path d="M0.93746 18.5362L5.9994 13.4743C6.0583 13.4185 6.13406 13.3838 6.2148 13.3756C6.29555 13.3674 6.37672 13.3863 6.44561 13.4292C6.62657 13.5323 6.8338 13.5801 7.04164 13.5666C7.24947 13.5531 7.44879 13.4789 7.6149 13.3533C7.78102 13.2277 7.90663 13.0561 7.9762 12.8597C8.04576 12.6634 8.05622 12.451 8.00628 12.2488L11.7512 15.9937C11.549 15.9438 11.3366 15.9542 11.1402 16.0238C10.9439 16.0934 10.7723 16.219 10.6467 16.3851C10.5211 16.5512 10.4469 16.7505 10.4334 16.9584C10.4199 17.1662 10.4677 17.3734 10.5708 17.5544C10.6137 17.6233 10.6326 17.7045 10.6244 17.7852C10.6162 17.8659 10.5815 17.9417 10.5257 18.0006L5.46375 23.0625C4.86343 23.6623 4.04949 23.9991 3.20089 23.999C2.35229 23.9988 1.5385 23.6616 0.938443 23.0615C0.33839 22.4615 0.00120206 21.6477 0.00101779 20.7991C0.000833528 19.9505 0.337668 19.1365 0.93746 18.5362ZM21.4457 4.96922C21.4844 4.96194 21.5212 4.94672 21.5537 4.92451C21.5862 4.9023 21.6137 4.87359 21.6346 4.84019L23.9595 1.114C23.9914 1.06284 24.0051 1.00238 23.9982 0.942463C23.9914 0.88255 23.9644 0.826724 23.9218 0.784085L23.5688 0.431156L23.2159 0.0781946C23.1733 0.0355597 23.1174 0.00862469 23.0575 0.00177932C22.9976 -0.00506605 22.9371 0.00858189 22.886 0.0404987L19.1598 2.36543C19.1264 2.38627 19.0977 2.41381 19.0755 2.44631C19.0533 2.47882 19.038 2.51557 19.0308 2.55426L18.8207 3.67052L13.3669 9.12426L14.8757 10.633L20.3294 5.17931L21.4457 4.96922ZM21.4732 18.7161L22.8363 20.0792C22.9318 20.1739 23.0532 20.2382 23.1851 20.2641C23.3171 20.2901 23.4537 20.2764 23.5779 20.225C23.7022 20.1735 23.8084 20.0865 23.8833 19.9748C23.9583 19.8631 23.9985 19.7318 23.9991 19.5974C24.0135 18.8828 23.8568 18.1752 23.5419 17.5337C23.227 16.8921 22.7631 16.3352 22.189 15.9096C21.6149 15.484 20.9472 15.202 20.2419 15.0871C19.5365 14.9722 18.8138 15.0279 18.1344 15.2494L8.75063 5.86564C8.97213 5.18616 9.02777 4.46353 8.9129 3.75815C8.79804 3.05277 8.51601 2.38513 8.09038 1.81102C7.66475 1.23692 7.10789 0.773028 6.46634 0.458124C5.82478 0.143221 5.11717 -0.0135486 4.40265 0.000917581C4.26818 0.00146389 4.13688 0.0417258 4.02522 0.116648C3.91356 0.19157 3.82653 0.297811 3.77505 0.422032C3.72356 0.546253 3.70993 0.682915 3.73586 0.814857C3.76179 0.946799 3.82612 1.06814 3.92078 1.16364L5.2839 2.52679C5.6548 2.88677 5.87225 3.37615 5.8908 3.89269C5.90936 4.40922 5.72759 4.91295 5.38347 5.29862C5.20463 5.48881 4.98941 5.64115 4.75058 5.7466C4.51175 5.85204 4.25418 5.90844 3.99314 5.91246C3.7321 5.91648 3.47291 5.86803 3.23095 5.76998C2.98899 5.67193 2.76918 5.52629 2.58458 5.34168L1.16314 3.92027C1.07041 3.82662 0.95243 3.76196 0.82359 3.73418C0.694751 3.7064 0.560613 3.7167 0.437522 3.76382C0.314432 3.81093 0.207704 3.89284 0.130345 3.99955C0.0529863 4.10626 0.00833674 4.23316 0.00183757 4.3648C-0.0187277 5.08266 0.13358 5.79495 0.445923 6.44163C0.758266 7.0883 1.22149 7.65042 1.79655 8.08059C2.37162 8.51076 3.04167 8.79639 3.75023 8.91339C4.45879 9.0304 5.18509 8.97536 5.86793 8.7529L15.2471 18.1321C15.0246 18.8149 14.9696 19.5412 15.0866 20.2498C15.2036 20.9583 15.4892 21.6284 15.9194 22.2034C16.3496 22.7785 16.9117 23.2417 17.5584 23.5541C18.205 23.8664 18.9173 24.0187 19.6352 23.9982C19.7668 23.9917 19.8937 23.947 20.0004 23.8697C20.1071 23.7923 20.1891 23.6856 20.2362 23.5625C20.2833 23.4394 20.2936 23.3053 20.2658 23.1764C20.238 23.0476 20.1734 22.9296 20.0797 22.8369L18.6583 21.4154C18.4737 21.2308 18.328 21.011 18.23 20.769C18.1319 20.5271 18.0835 20.2679 18.0875 20.0069C18.0915 19.7458 18.1479 19.4882 18.2534 19.2494C18.3588 19.0106 18.5112 18.7953 18.7014 18.6165C19.087 18.2724 19.5908 18.0906 20.1073 18.1092C20.6239 18.1277 21.1132 18.3452 21.4732 18.7161L21.4732 18.7161Z"/>
</mask>
<path d="M0.93746 18.5362L5.9994 13.4743C6.0583 13.4185 6.13406 13.3838 6.2148 13.3756C6.29555 13.3674 6.37672 13.3863 6.44561 13.4292C6.62657 13.5323 6.8338 13.5801 7.04164 13.5666C7.24947 13.5531 7.44879 13.4789 7.6149 13.3533C7.78102 13.2277 7.90663 13.0561 7.9762 12.8597C8.04576 12.6634 8.05622 12.451 8.00628 12.2488L11.7512 15.9937C11.549 15.9438 11.3366 15.9542 11.1402 16.0238C10.9439 16.0934 10.7723 16.219 10.6467 16.3851C10.5211 16.5512 10.4469 16.7505 10.4334 16.9584C10.4199 17.1662 10.4677 17.3734 10.5708 17.5544C10.6137 17.6233 10.6326 17.7045 10.6244 17.7852C10.6162 17.8659 10.5815 17.9417 10.5257 18.0006L5.46375 23.0625C4.86343 23.6623 4.04949 23.9991 3.20089 23.999C2.35229 23.9988 1.5385 23.6616 0.938443 23.0615C0.33839 22.4615 0.00120206 21.6477 0.00101779 20.7991C0.000833528 19.9505 0.337668 19.1365 0.93746 18.5362ZM21.4457 4.96922C21.4844 4.96194 21.5212 4.94672 21.5537 4.92451C21.5862 4.9023 21.6137 4.87359 21.6346 4.84019L23.9595 1.114C23.9914 1.06284 24.0051 1.00238 23.9982 0.942463C23.9914 0.88255 23.9644 0.826724 23.9218 0.784085L23.5688 0.431156L23.2159 0.0781946C23.1733 0.0355597 23.1174 0.00862469 23.0575 0.00177932C22.9976 -0.00506605 22.9371 0.00858189 22.886 0.0404987L19.1598 2.36543C19.1264 2.38627 19.0977 2.41381 19.0755 2.44631C19.0533 2.47882 19.038 2.51557 19.0308 2.55426L18.8207 3.67052L13.3669 9.12426L14.8757 10.633L20.3294 5.17931L21.4457 4.96922ZM21.4732 18.7161L22.8363 20.0792C22.9318 20.1739 23.0532 20.2382 23.1851 20.2641C23.3171 20.2901 23.4537 20.2764 23.5779 20.225C23.7022 20.1735 23.8084 20.0865 23.8833 19.9748C23.9583 19.8631 23.9985 19.7318 23.9991 19.5974C24.0135 18.8828 23.8568 18.1752 23.5419 17.5337C23.227 16.8921 22.7631 16.3352 22.189 15.9096C21.6149 15.484 20.9472 15.202 20.2419 15.0871C19.5365 14.9722 18.8138 15.0279 18.1344 15.2494L8.75063 5.86564C8.97213 5.18616 9.02777 4.46353 8.9129 3.75815C8.79804 3.05277 8.51601 2.38513 8.09038 1.81102C7.66475 1.23692 7.10789 0.773028 6.46634 0.458124C5.82478 0.143221 5.11717 -0.0135486 4.40265 0.000917581C4.26818 0.00146389 4.13688 0.0417258 4.02522 0.116648C3.91356 0.19157 3.82653 0.297811 3.77505 0.422032C3.72356 0.546253 3.70993 0.682915 3.73586 0.814857C3.76179 0.946799 3.82612 1.06814 3.92078 1.16364L5.2839 2.52679C5.6548 2.88677 5.87225 3.37615 5.8908 3.89269C5.90936 4.40922 5.72759 4.91295 5.38347 5.29862C5.20463 5.48881 4.98941 5.64115 4.75058 5.7466C4.51175 5.85204 4.25418 5.90844 3.99314 5.91246C3.7321 5.91648 3.47291 5.86803 3.23095 5.76998C2.98899 5.67193 2.76918 5.52629 2.58458 5.34168L1.16314 3.92027C1.07041 3.82662 0.95243 3.76196 0.82359 3.73418C0.694751 3.7064 0.560613 3.7167 0.437522 3.76382C0.314432 3.81093 0.207704 3.89284 0.130345 3.99955C0.0529863 4.10626 0.00833674 4.23316 0.00183757 4.3648C-0.0187277 5.08266 0.13358 5.79495 0.445923 6.44163C0.758266 7.0883 1.22149 7.65042 1.79655 8.08059C2.37162 8.51076 3.04167 8.79639 3.75023 8.91339C4.45879 9.0304 5.18509 8.97536 5.86793 8.7529L15.2471 18.1321C15.0246 18.8149 14.9696 19.5412 15.0866 20.2498C15.2036 20.9583 15.4892 21.6284 15.9194 22.2034C16.3496 22.7785 16.9117 23.2417 17.5584 23.5541C18.205 23.8664 18.9173 24.0187 19.6352 23.9982C19.7668 23.9917 19.8937 23.947 20.0004 23.8697C20.1071 23.7923 20.1891 23.6856 20.2362 23.5625C20.2833 23.4394 20.2936 23.3053 20.2658 23.1764C20.238 23.0476 20.1734 22.9296 20.0797 22.8369L18.6583 21.4154C18.4737 21.2308 18.328 21.011 18.23 20.769C18.1319 20.5271 18.0835 20.2679 18.0875 20.0069C18.0915 19.7458 18.1479 19.4882 18.2534 19.2494C18.3588 19.0106 18.5112 18.7953 18.7014 18.6165C19.087 18.2724 19.5908 18.0906 20.1073 18.1092C20.6239 18.1277 21.1132 18.3452 21.4732 18.7161L21.4732 18.7161Z" fill="#C5C7D3"/>
<path d="M5.9994 13.4743L5.31144 12.7486L5.30174 12.7578L5.2923 12.7672L5.9994 13.4743ZM6.44561 13.4292L5.91685 14.278L5.93351 14.2883L5.95056 14.2981L6.44561 13.4292ZM7.9762 12.8597L8.91877 13.1937L7.9762 12.8597ZM8.00628 12.2488L8.71339 11.5417L6.17443 9.00275L7.03546 12.4886L8.00628 12.2488ZM11.7512 15.9937L11.5113 16.9645L14.9974 17.8258L12.4583 15.2866L11.7512 15.9937ZM10.5708 17.5544L9.70195 18.0495L9.71167 18.0665L9.72205 18.0832L10.5708 17.5544ZM10.5257 18.0006L11.2328 18.7077L11.2422 18.6983L11.2514 18.6886L10.5257 18.0006ZM5.46375 23.0625L6.17055 23.7699L6.17085 23.7696L5.46375 23.0625ZM21.4457 4.96922L21.2608 3.98647L21.2608 3.98648L21.4457 4.96922ZM21.6346 4.84019L22.4829 5.36958L22.483 5.36954L21.6346 4.84019ZM23.9595 1.114L23.1111 0.584587L23.1111 0.584645L23.9595 1.114ZM23.9218 0.784085L23.2147 1.49121L23.2147 1.49122L23.9218 0.784085ZM23.5688 0.431156L22.8617 1.13825L22.8618 1.13828L23.5688 0.431156ZM23.2159 0.0781946L23.923 -0.628897L23.9229 -0.628977L23.2159 0.0781946ZM22.886 0.0404987L22.3567 -0.807937L22.3566 -0.807903L22.886 0.0404987ZM19.1598 2.36543L18.6304 1.51702L18.6304 1.51704L19.1598 2.36543ZM19.0308 2.55426L20.0135 2.73922L20.0135 2.73918L19.0308 2.55426ZM18.8207 3.67052L19.5278 4.37763L19.7463 4.15914L19.8034 3.85548L18.8207 3.67052ZM13.3669 9.12426L12.6598 8.41715L11.9527 9.12427L12.6599 9.83137L13.3669 9.12426ZM14.8757 10.633L14.1686 11.3401L14.8758 12.0472L15.5828 11.3401L14.8757 10.633ZM20.3294 5.17931L20.1445 4.19657L19.8408 4.25372L19.6223 4.47221L20.3294 5.17931ZM21.4732 18.7161L22.0979 17.9352L20.7661 19.4232L21.4732 18.7161ZM22.8363 20.0792L22.1292 20.7863L22.1323 20.7894L22.8363 20.0792ZM23.9991 19.5974L22.9993 19.5771L22.9991 19.5852L22.9991 19.5933L23.9991 19.5974ZM18.1344 15.2494L17.4273 15.9565L17.861 16.3903L18.4443 16.2001L18.1344 15.2494ZM8.75063 5.86564L7.79987 5.55571L7.60974 6.13897L8.04352 6.57275L8.75063 5.86564ZM4.40265 0.000917581L4.40671 1.00091L4.4148 1.00088L4.42289 1.00071L4.40265 0.000917581ZM3.92078 1.16364L3.21055 1.86762L3.21367 1.87074L3.92078 1.16364ZM5.2839 2.52679L4.57678 3.23388L4.58207 3.23917L4.58743 3.24438L5.2839 2.52679ZM5.38347 5.29862L6.11199 5.98365L6.12094 5.97413L6.12963 5.96439L5.38347 5.29862ZM2.58458 5.34168L1.87747 6.0488L1.87748 6.0488L2.58458 5.34168ZM1.16314 3.92027L0.452566 4.62391L0.456042 4.62738L1.16314 3.92027ZM0.00183757 4.3648L-0.996946 4.31549L-0.997456 4.32583L-0.997752 4.33617L0.00183757 4.3648ZM5.86793 8.7529L6.57503 8.0458L6.14134 7.6121L5.55817 7.80209L5.86793 8.7529ZM15.2471 18.1321L16.1979 18.4418L16.3879 17.8587L15.9542 17.425L15.2471 18.1321ZM19.6352 23.9982L19.6638 24.9978L19.6742 24.9975L19.6845 24.9969L19.6352 23.9982ZM20.0797 22.8369L19.3726 23.544L19.3761 23.5474L20.0797 22.8369ZM18.6583 21.4154L19.3654 20.7083V20.7083L18.6583 21.4154ZM18.7014 18.6165L18.0356 17.8703L18.0259 17.879L18.0163 17.888L18.7014 18.6165ZM21.4732 18.7161L20.8485 19.497L22.1908 18.0197L21.4732 18.7161ZM1.64457 19.2433L6.70651 14.1814L5.2923 12.7672L0.230355 17.8291L1.64457 19.2433ZM6.68736 14.2001C6.58566 14.2965 6.45484 14.3564 6.3154 14.3705L6.1142 12.3807C5.81327 12.4111 5.53094 12.5405 5.31144 12.7486L6.68736 14.2001ZM6.3154 14.3705C6.17597 14.3846 6.0358 14.3521 5.91685 14.278L6.97437 12.5804C6.71765 12.4205 6.41513 12.3502 6.1142 12.3807L6.3154 14.3705ZM5.95056 14.2981C6.30149 14.498 6.70336 14.5906 7.10641 14.5645L6.97686 12.5687C6.96424 12.5695 6.95165 12.5666 6.94065 12.5603L5.95056 14.2981ZM7.10641 14.5645C7.50946 14.5383 7.89599 14.3945 8.21812 14.1509L7.01168 12.5557C7.00159 12.5633 6.98948 12.5679 6.97686 12.5687L7.10641 14.5645ZM8.21812 14.1509C8.54026 13.9072 8.78386 13.5745 8.91877 13.1937L7.03363 12.5257C7.0294 12.5377 7.02177 12.5481 7.01168 12.5557L8.21812 14.1509ZM8.91877 13.1937C9.05367 12.813 9.07395 12.4011 8.9771 12.009L7.03546 12.4886C7.03849 12.5009 7.03785 12.5138 7.03363 12.5257L8.91877 13.1937ZM7.29917 12.9559L11.0441 16.7008L12.4583 15.2866L8.71339 11.5417L7.29917 12.9559ZM11.991 15.0229C11.5989 14.926 11.187 14.9463 10.8063 15.0812L11.4742 16.9664C11.4862 16.9621 11.4991 16.9615 11.5113 16.9645L11.991 15.0229ZM10.8063 15.0812C10.4255 15.2161 10.0928 15.4597 9.84911 15.7819L11.4443 16.9883C11.4519 16.9782 11.4623 16.9706 11.4742 16.9664L10.8063 15.0812ZM9.84911 15.7819C9.60547 16.104 9.46166 16.4906 9.43551 16.8936L11.4313 17.0231C11.4321 17.0105 11.4366 16.9984 11.4443 16.9883L9.84911 15.7819ZM9.43551 16.8936C9.40935 17.2967 9.50199 17.6985 9.70195 18.0495L11.4397 17.0593C11.4334 17.0483 11.4305 17.0357 11.4313 17.0231L9.43551 16.8936ZM9.72205 18.0832C9.64794 17.9642 9.61538 17.824 9.62948 17.6846L11.6193 17.8858C11.6498 17.5849 11.5795 17.2823 11.4196 17.0256L9.72205 18.0832ZM9.62948 17.6846C9.64358 17.5451 9.70354 17.4143 9.79997 17.3126L11.2514 18.6886C11.4595 18.4691 11.5889 18.1867 11.6193 17.8858L9.62948 17.6846ZM9.81858 17.2935L4.75664 22.3554L6.17085 23.7696L11.2328 18.7077L9.81858 17.2935ZM4.75694 22.3551C4.3442 22.7675 3.78457 22.9991 3.20111 22.999L3.20068 24.999C4.31442 24.9992 5.38267 24.5571 6.17055 23.7699L4.75694 22.3551ZM3.20111 22.999C2.61765 22.9988 2.05812 22.767 1.64555 22.3544L0.231336 23.7686C1.01887 24.5562 2.08693 24.9987 3.20068 24.999L3.20111 22.999ZM1.64555 22.3544C1.23298 21.9419 1.00114 21.3823 1.00102 20.7989L-0.998982 20.7993C-0.99874 21.9131 -0.5562 22.9811 0.231336 23.7686L1.64555 22.3544ZM1.00102 20.7989C1.00089 20.2154 1.23248 19.6558 1.64487 19.243L0.230047 17.8294C-0.557147 18.6173 -0.999224 19.6856 -0.998982 20.7993L1.00102 20.7989ZM21.6307 5.95197C21.8053 5.91912 21.9712 5.85039 22.1179 5.75015L20.9895 4.09887C21.0712 4.04304 21.1636 4.00477 21.2608 3.98647L21.6307 5.95197ZM22.1179 5.75015C22.2646 5.6499 22.3889 5.52031 22.4829 5.36958L20.7862 4.31079C20.8386 4.22687 20.9078 4.1547 20.9895 4.09887L22.1179 5.75015ZM22.483 5.36954L24.8079 1.64335L23.1111 0.584645L20.7862 4.31083L22.483 5.36954ZM24.8078 1.64341C24.9594 1.40049 25.0243 1.1134 24.9918 0.828942L23.0047 1.05598C22.9859 0.891351 23.0234 0.725187 23.1111 0.584587L24.8078 1.64341ZM24.9918 0.828942C24.9592 0.54449 24.8313 0.279414 24.6289 0.0769486L23.2147 1.49122C23.0975 1.37403 23.0235 1.22061 23.0047 1.05598L24.9918 0.828942ZM24.6289 0.0769653L24.2759 -0.275964L22.8618 1.13828L23.2147 1.49121L24.6289 0.0769653ZM24.276 -0.275936L23.923 -0.628897L22.5088 0.785286L22.8617 1.13825L24.276 -0.275936ZM23.9229 -0.628977C23.7205 -0.831387 23.4555 -0.959258 23.171 -0.991756L22.944 0.995315C22.7794 0.976508 22.626 0.902506 22.5089 0.785366L23.9229 -0.628977ZM23.171 -0.991756C22.8866 -1.02426 22.5996 -0.959459 22.3567 -0.807937L23.4153 0.888935C23.2747 0.976622 23.1086 1.01412 22.944 0.995315L23.171 -0.991756ZM22.3566 -0.807903L18.6304 1.51702L19.6891 3.21383L23.4153 0.8889L22.3566 -0.807903ZM18.6304 1.51704C18.4797 1.61111 18.3501 1.73543 18.2498 1.88212L19.9011 3.0105C19.8453 3.09219 19.7731 3.16142 19.6892 3.21381L18.6304 1.51704ZM18.2498 1.88212C18.1496 2.02882 18.0809 2.19473 18.048 2.36934L20.0135 2.73918C19.9952 2.83642 19.9569 2.92881 19.9011 3.0105L18.2498 1.88212ZM18.048 2.3693L17.8379 3.48556L19.8034 3.85548L20.0135 2.73922L18.048 2.3693ZM18.1136 2.96342L12.6598 8.41715L14.0741 9.83136L19.5278 4.37763L18.1136 2.96342ZM12.6599 9.83137L14.1686 11.3401L15.5828 9.92589L14.074 8.41714L12.6599 9.83137ZM15.5828 11.3401L21.0365 5.88642L19.6223 4.47221L14.1686 9.9259L15.5828 11.3401ZM20.5144 6.16206L21.6307 5.95197L21.2608 3.98648L20.1445 4.19657L20.5144 6.16206ZM20.7661 19.4232L22.1292 20.7863L23.5434 19.3721L22.1803 18.009L20.7661 19.4232ZM22.1323 20.7894C22.3678 21.0228 22.6669 21.1814 22.9922 21.2454L23.378 19.2829C23.4394 19.295 23.4959 19.3249 23.5403 19.369L22.1323 20.7894ZM22.9922 21.2454C23.3175 21.3093 23.6545 21.2757 23.9608 21.1488L23.1951 19.3011C23.2529 19.2772 23.3166 19.2708 23.378 19.2829L22.9922 21.2454ZM23.9608 21.1488C24.267 21.0219 24.529 20.8073 24.7137 20.532L23.053 19.4176C23.0878 19.3656 23.1373 19.3251 23.1951 19.3011L23.9608 21.1488ZM24.7137 20.532C24.8984 20.2567 24.9977 19.933 24.9991 19.6014L22.9991 19.5933C22.9993 19.5307 23.0181 19.4696 23.053 19.4176L24.7137 20.532ZM24.9989 19.6176C25.0166 18.7435 24.8248 17.8779 24.4396 17.093L22.6442 17.9743C22.8888 18.4726 23.0105 19.0222 22.9993 19.5771L24.9989 19.6176ZM24.4396 17.093C24.0543 16.3082 23.4869 15.627 22.7845 15.1063L21.5934 16.7129C22.0393 17.0435 22.3996 17.476 22.6442 17.9743L24.4396 17.093ZM22.7845 15.1063C22.0822 14.5856 21.2655 14.2406 20.4026 14.1001L20.0811 16.0741C20.629 16.1633 21.1475 16.3824 21.5934 16.7129L22.7845 15.1063ZM20.4026 14.1001C19.5397 13.9596 18.6557 14.0277 17.8244 14.2986L18.4443 16.2001C18.972 16.0281 19.5333 15.9849 20.0811 16.0741L20.4026 14.1001ZM18.8415 14.5423L9.45773 5.15853L8.04352 6.57275L17.4273 15.9565L18.8415 14.5423ZM9.70139 6.17557C9.97235 5.34434 10.0404 4.46034 9.8999 3.59743L7.9259 3.91887C8.01512 4.46672 7.9719 5.02797 7.79987 5.55571L9.70139 6.17557ZM9.8999 3.59743C9.75939 2.73452 9.41438 1.91778 8.89369 1.21546L7.28707 2.40658C7.61765 2.85247 7.83669 3.37102 7.9259 3.91887L9.8999 3.59743ZM8.89369 1.21546C8.37301 0.513148 7.69179 -0.054338 6.90696 -0.439566L6.02571 1.35581C6.52399 1.60039 6.95649 1.96069 7.28707 2.40658L8.89369 1.21546ZM6.90696 -0.439566C6.12214 -0.824794 5.2565 -1.01657 4.38241 -0.998878L4.42289 1.00071C4.97785 0.989477 5.52743 1.11124 6.02571 1.35581L6.90696 -0.439566ZM4.39859 -0.999074C4.06707 -0.997727 3.74333 -0.898462 3.46804 -0.713742L4.5824 0.947038C4.53042 0.981914 4.4693 1.00066 4.40671 1.00091L4.39859 -0.999074ZM3.46804 -0.713742C3.19274 -0.529024 2.97816 -0.267086 2.85124 0.0391801L4.69885 0.804884C4.67489 0.862709 4.63438 0.912163 4.5824 0.947038L3.46804 -0.713742ZM2.85124 0.0391801C2.72431 0.345445 2.6907 0.682383 2.75463 1.00769L4.71709 0.622028C4.72916 0.683446 4.72282 0.747061 4.69885 0.804884L2.85124 0.0391801ZM2.75463 1.00769C2.81856 1.33299 2.97717 1.63215 3.21055 1.86761L4.63102 0.459673C4.67508 0.504128 4.70502 0.56061 4.71709 0.622028L2.75463 1.00769ZM3.21367 1.87074L4.57678 3.23388L5.99101 1.81969L4.6279 0.456542L3.21367 1.87074ZM4.58743 3.24438C4.77323 3.4247 4.88215 3.66984 4.89145 3.92859L6.89016 3.85679C6.86234 3.08246 6.53637 2.34883 5.98036 1.80919L4.58743 3.24438ZM4.89145 3.92859C4.90074 4.18733 4.80969 4.43966 4.63731 4.63285L6.12963 5.96439C6.64549 5.38624 6.91797 4.63112 6.89016 3.85679L4.89145 3.92859ZM4.65496 4.61359C4.56785 4.70623 4.46302 4.78043 4.34669 4.83179L5.15448 6.6614C5.51581 6.50187 5.84142 6.2714 6.11199 5.98365L4.65496 4.61359ZM4.34669 4.83179C4.23036 4.88315 4.1049 4.91062 3.97775 4.91258L4.00852 6.91234C4.40346 6.90627 4.79315 6.82093 5.15448 6.6614L4.34669 4.83179ZM3.97775 4.91258C3.85061 4.91454 3.72436 4.89094 3.60651 4.84318L2.85539 6.69678C3.22146 6.84511 3.61359 6.91842 4.00852 6.91234L3.97775 4.91258ZM3.60651 4.84318C3.48865 4.79542 3.38159 4.72448 3.29167 4.63457L1.87748 6.0488C2.15678 6.32809 2.48933 6.54844 2.85539 6.69678L3.60651 4.84318ZM3.29168 4.63457L1.87025 3.21316L0.456042 4.62738L1.87747 6.0488L3.29168 4.63457ZM1.87372 3.21665C1.64447 2.98514 1.35284 2.82532 1.03436 2.75665L0.612818 4.71172C0.552015 4.69861 0.496339 4.66809 0.452575 4.6239L1.87372 3.21665ZM1.03436 2.75665C0.715879 2.68798 0.3843 2.71343 0.0800321 2.8299L0.795012 4.69773C0.736925 4.71997 0.673623 4.72483 0.612818 4.71172L1.03436 2.75665ZM0.0800321 2.8299C-0.224238 2.94637 -0.48806 3.14883 -0.679285 3.41261L0.939976 4.58649C0.903468 4.63685 0.853101 4.6755 0.795012 4.69773L0.0800321 2.8299ZM-0.679285 3.41261C-0.87051 3.67638 -0.98088 3.99009 -0.996946 4.31549L1.00062 4.41411C0.997554 4.47624 0.976483 4.53613 0.939976 4.58649L-0.679285 3.41261ZM-0.997752 4.33617C-1.02291 5.21426 -0.836604 6.08553 -0.454544 6.87655L1.34639 6.0067C1.10376 5.50437 0.985453 4.95107 1.00143 4.39344L-0.997752 4.33617ZM-0.454544 6.87655C-0.0724845 7.66757 0.494135 8.35515 1.19756 8.88134L2.39555 7.27984C1.94885 6.94568 1.58902 6.50904 1.34639 6.0067L-0.454544 6.87655ZM1.19756 8.88134C1.90098 9.40753 2.72059 9.75691 3.5873 9.90003L3.91315 7.92676C3.36275 7.83587 2.84226 7.614 2.39555 7.27984L1.19756 8.88134ZM3.5873 9.90003C4.45402 10.0432 5.34244 9.97583 6.17768 9.70372L5.55817 7.80209C5.02775 7.97489 4.46356 8.01765 3.91315 7.92676L3.5873 9.90003ZM5.16082 9.46001L14.54 18.8392L15.9542 17.425L6.57503 8.0458L5.16082 9.46001ZM14.2963 17.8223C14.0242 18.6576 13.9568 19.546 14.1 20.4127L16.0732 20.0868C15.9823 19.5364 16.0251 18.9722 16.1979 18.4418L14.2963 17.8223ZM14.1 20.4127C14.2431 21.2794 14.5925 22.099 15.1186 22.8024L16.7201 21.6044C16.386 21.1577 16.1641 20.6372 16.0732 20.0868L14.1 20.4127ZM15.1186 22.8024C15.6448 23.5059 16.3324 24.0725 17.1234 24.4545L17.9933 22.6536C17.491 22.411 17.0543 22.0512 16.7201 21.6044L15.1186 22.8024ZM17.1234 24.4545C17.9145 24.8366 18.7857 25.0229 19.6638 24.9978L19.6065 22.9986C19.0489 23.0145 18.4956 22.8962 17.9933 22.6536L17.1234 24.4545ZM19.6845 24.9969C20.0099 24.9809 20.3236 24.8705 20.5874 24.6793L19.4135 23.06C19.4639 23.0235 19.5238 23.0024 19.5859 22.9994L19.6845 24.9969ZM20.5874 24.6793C20.8511 24.4881 21.0536 24.2243 21.1701 23.92L19.3023 23.205C19.3245 23.1469 19.3632 23.0965 19.4135 23.06L20.5874 24.6793ZM21.1701 23.92C21.2866 23.6157 21.312 23.2842 21.2434 22.9657L19.2883 23.3872C19.2752 23.3264 19.28 23.2631 19.3023 23.205L21.1701 23.92ZM21.2434 22.9657C21.1747 22.6472 21.0149 22.3556 20.7834 22.1263L19.3761 23.5474C19.3319 23.5037 19.3014 23.448 19.2883 23.3872L21.2434 22.9657ZM20.7868 22.1298L19.3654 20.7083L17.9512 22.1225L19.3726 23.544L20.7868 22.1298ZM19.3654 20.7083C19.2755 20.6184 19.2046 20.5113 19.1568 20.3935L17.3032 21.1446C17.4515 21.5107 17.6719 21.8432 17.9512 22.1225L19.3654 20.7083ZM19.1568 20.3935C19.109 20.2756 19.0854 20.1494 19.0874 20.0222L17.0876 19.9915C17.0816 20.3864 17.1549 20.7785 17.3032 21.1446L19.1568 20.3935ZM19.0874 20.0222C19.0893 19.8951 19.1168 19.7696 19.1682 19.6533L17.3386 18.8455C17.179 19.2068 17.0937 19.5965 17.0876 19.9915L19.0874 20.0222ZM19.1682 19.6533C19.2195 19.537 19.2937 19.4321 19.3864 19.345L18.0163 17.888C17.7286 18.1585 17.4981 18.4842 17.3386 18.8455L19.1682 19.6533ZM19.3671 19.3627C19.5603 19.1903 19.8127 19.0992 20.0714 19.1085L20.1432 17.1098C19.3689 17.082 18.6138 17.3545 18.0356 17.8703L19.3671 19.3627ZM20.0714 19.1085C20.3302 19.1178 20.5753 19.2268 20.7556 19.4126L22.1908 18.0197C21.6512 17.4636 20.9176 17.1377 20.1432 17.1098L20.0714 19.1085ZM22.0979 17.9352L22.0979 17.9352L20.8485 19.497L20.8485 19.497L22.0979 17.9352Z" fill="#C5C7D3" mask="url(#path-1-inside-1_1_45)"/>
</svg>
