<svg width="24" height="19" viewBox="0 0 24 19" fill="none" xmlns="http://www.w3.org/2000/svg">
<path d="M16.4629 1.41735L16.4629 1.41734C15.0436 0.805779 13.5575 0.5 12 0.5C10.4425 0.5 8.95631 0.805777 7.53715 1.41731L16.4629 1.41735ZM16.4629 1.41735C17.8903 2.03227 19.1128 2.85621 20.1365 3.88768M16.4629 1.41735L20.1365 3.88768M15.2845 7.50096L15.2826 7.50839L14.0138 12.343C14.4002 12.6771 14.6892 13.0933 14.8778 13.5853L14.8778 13.5855C15.112 14.1973 15.1438 14.8304 14.975 15.4693C14.7631 16.29 14.2825 16.9265 13.5513 17.3535C12.8214 17.7799 12.0334 17.8892 11.217 17.6754C10.3989 17.4613 9.76652 16.9759 9.34329 16.24L9.34326 16.24C8.92119 15.506 8.81358 14.7152 9.02475 13.8957L9.02557 13.8925C9.1944 13.2548 9.53184 12.7206 10.0343 12.3061C10.4368 11.9737 10.8896 11.756 11.3862 11.6566L12.6547 6.82277L12.6553 6.82065C12.7509 6.46272 12.9653 6.17547 13.2855 5.98614L13.2859 5.9859C13.6048 5.7977 13.9594 5.74643 14.3185 5.84768L14.3188 5.84774C14.6671 5.94614 14.9431 6.16041 15.1281 6.47104L15.2845 7.50096ZM15.2845 7.50096L15.2863 7.49348M15.2845 7.50096L15.2863 7.49348M15.2863 7.49348C15.3683 7.1365 15.3159 6.78634 15.1281 6.47114L15.2863 7.49348ZM20.1365 3.88768C21.1603 4.91939 21.9786 6.15142 22.5891 7.59019M20.1365 3.88768L22.5891 7.59019M22.5891 7.59019C23.1963 9.02131 23.5 10.5202 23.5 12.0909C23.5 14.3428 22.8982 16.422 21.6905 18.3389C21.6143 18.455 21.5316 18.5 21.3884 18.5H12H2.61156C2.46808 18.5 2.38536 18.4549 2.30911 18.3385C1.10203 16.4311 0.5 14.3521 0.5 12.0909C0.5 10.5202 0.803656 9.02135 1.41104 7.59028L22.5891 7.59019ZM10.4329 5.02793L10.433 5.02802C10.8612 5.45947 11.3928 5.68195 12 5.68195C12.6073 5.68195 13.1387 5.45943 13.5669 5.02802C13.9948 4.59682 14.2145 4.0632 14.2145 3.45464C14.2145 2.84618 13.9949 2.31236 13.5669 1.88125C13.1387 1.44984 12.6073 1.22732 12 1.22732C11.3927 1.22732 10.8613 1.44985 10.433 1.88117C10.0048 2.31247 9.78564 2.84639 9.78564 3.45464C9.78564 4.06306 10.005 4.59667 10.4329 5.02793ZM4.99559 13.6643L4.99568 13.6642C5.4235 13.2329 5.6429 12.6993 5.6429 12.0909C5.6429 11.4825 5.4235 10.9489 4.99568 10.5176C4.56754 10.086 4.03572 9.86357 3.42855 9.86357C2.82144 9.86357 2.28986 10.0861 1.86167 10.5175C1.43353 10.9489 1.21436 11.4826 1.21436 12.0909C1.21436 12.699 1.43337 13.2331 1.86167 13.6643C2.28977 14.0956 2.82132 14.3184 3.42855 14.3184C4.03592 14.3184 4.56747 14.0956 4.99559 13.6643ZM7.56696 7.619L7.56713 7.61883C7.99497 7.18754 8.21436 6.65376 8.21436 6.04553C8.21436 5.4371 7.99495 4.9035 7.56713 4.47223L7.56705 4.47215C7.13883 4.0407 6.60724 3.81821 6 3.81821C5.39268 3.81821 4.86133 4.04074 4.43304 4.47206L4.43295 4.47215C4.00481 4.90352 3.78564 5.43721 3.78564 6.04553C3.78564 6.65388 4.005 7.18773 4.43295 7.61891L4.43304 7.619C4.86114 8.05012 5.39265 8.27285 6 8.27285C6.60732 8.27285 7.13867 8.05032 7.56696 7.619ZM22.1384 10.5176L22.1383 10.5175C21.7102 10.0861 21.1787 9.86357 20.5715 9.86357C19.9642 9.86357 19.4327 10.0861 19.0046 10.5175C18.5765 10.9488 18.3571 11.4825 18.3571 12.0909C18.3571 12.6991 18.5764 13.2332 19.0046 13.6643C19.4327 14.0956 19.964 14.3184 20.5715 14.3184C21.1789 14.3184 21.7102 14.0956 22.1383 13.6643C22.5665 13.2329 22.7856 12.6992 22.7856 12.0909C22.7856 11.4825 22.5662 10.9489 22.1384 10.5176ZM3.86381 3.88768C4.88751 2.85624 6.11004 2.03244 7.5371 1.41733L1.41105 7.59024C2.02192 6.15134 2.8399 4.91933 3.86381 3.88768ZM15.7855 6.04553C15.7855 6.65402 16.0051 7.18788 16.4332 7.619C16.8614 8.05036 17.3927 8.27285 18 8.27285C18.6073 8.27285 19.1387 8.05033 19.5669 7.61891C19.9949 7.18769 20.2145 6.6539 20.2145 6.04553C20.2145 5.43696 19.9948 4.90335 19.5669 4.47215C19.1387 4.04073 18.6073 3.81821 18 3.81821C17.3927 3.81821 16.8613 4.04073 16.4331 4.47215C16.0052 4.90335 15.7855 5.43696 15.7855 6.04553Z" fill="#C5C7D3" stroke="#C5C7D3"/>
</svg>
