<svg width="24" height="24" viewBox="0 0 24 24" fill="none" xmlns="http://www.w3.org/2000/svg">
<path fill-rule="evenodd" clip-rule="evenodd" d="M24 12C24 5.37258 18.6274 1.90735e-06 12 1.90735e-06C5.37258 1.90735e-06 0 5.37258 0 12C0 18.6274 5.37258 24 12 24C18.6274 24 24 18.6274 24 12ZM20.3495 10.7072C21.0648 10.7072 21.5408 10.1367 21.3882 9.43629C21.3882 9.43629 21.4945 9.81758 21.3755 9.38949C20.2348 5.28364 16.4693 2.27027 12 2.27027C6.62642 2.27027 2.27027 6.62642 2.27027 12C2.27027 17.3736 6.62642 21.7297 12 21.7297C16.4772 21.7297 20.248 18.7057 21.3816 14.5888C21.4976 14.1674 21.3884 14.5636 21.3884 14.5636C21.5299 13.8616 21.0638 13.2925 20.3495 13.2925H12.2164C12.0372 13.2925 11.9944 13.3947 12.1224 13.5222C12.1224 13.5222 13.1741 14.5707 13.5564 14.9472C14.7916 16.1778 12.9569 18.006 11.7339 16.7873L7.7918 12.8273C7.35054 12.3834 7.34837 11.661 7.78719 11.2141L11.7339 7.21267C12.9569 5.99404 14.7916 7.82215 13.5686 9.04079C13.1752 9.42806 12.1228 10.4771 12.1228 10.4771C11.9953 10.6042 12.0373 10.7072 12.2164 10.7072H20.3495Z" fill="#C5C7D3"/>
</svg>
