<svg width="24" height="24" viewBox="0 0 24 24" fill="none" xmlns="http://www.w3.org/2000/svg">
<path d="M23.1491 9.01913C22.9236 8.51807 22.3725 8.26753 21.8714 8.31763C20.7941 5.36136 18.4642 3.03143 15.5079 1.95414C15.5831 1.42803 15.3075 0.901907 14.8064 0.651376C13.9045 0.225472 12.9274 0 11.9002 0C10.8731 0 9.896 0.225472 8.99409 0.651376C8.49302 0.876854 8.24248 1.42803 8.29259 1.95414C5.33631 3.03143 3.00638 5.36136 1.9291 8.31763C1.40298 8.24247 0.876854 8.51807 0.651376 9.01913C0.225472 9.92105 0 10.8981 0 11.9253C0 12.9525 0.225472 13.9295 0.651376 14.8315C0.876854 15.3325 1.40298 15.5831 1.9291 15.533C3.00638 18.4892 5.33631 20.8192 8.29259 21.8965C8.21743 22.4226 8.49302 22.9487 8.99409 23.1992C9.896 23.6251 10.8731 23.8506 11.9002 23.8506C12.9274 23.8506 13.9045 23.6251 14.8064 23.1992C15.3075 22.9737 15.558 22.4226 15.5079 21.8965C18.4642 20.8192 20.7941 18.4892 21.8714 15.533C22.3975 15.6081 22.9236 15.3325 23.1491 14.8315C23.575 13.9295 23.8005 12.9525 23.8005 11.9253C23.8005 10.8981 23.575 9.92105 23.1491 9.01913ZM20.7691 8.59323L17.2616 9.44503C16.6854 8.16731 15.6582 7.16519 14.3805 6.56391L15.2323 3.05647C17.7877 4.00849 19.817 6.03781 20.7691 8.59323ZM13.9797 16.2344C13.679 15.8837 13.2281 15.7083 12.7521 15.8336C12.4765 15.9087 12.1758 15.9338 11.9002 15.9338C11.5996 15.9338 11.324 15.9087 11.0484 15.8336C10.5724 15.7083 10.1215 15.8837 9.82084 16.2344C8.84377 15.7584 8.06711 14.9818 7.5911 14.0047C7.94185 13.7041 8.11723 13.2531 7.99196 12.7771C7.9168 12.5015 7.89174 12.2009 7.89174 11.9253C7.89174 11.6247 7.9168 11.3491 7.99196 11.0735C8.11723 10.5975 7.94185 10.1465 7.5911 9.84588C8.06711 8.86881 8.84377 8.09216 9.82084 7.61615C10.1215 7.96689 10.5724 8.14227 11.0484 8.01701C11.324 7.94185 11.6247 7.91679 11.9002 7.91679C12.2009 7.91679 12.4765 7.94185 12.7521 8.01701C13.2281 8.14227 13.679 7.96689 13.9797 7.61615C14.9567 8.09216 15.7334 8.86881 16.2094 9.84588C15.8586 10.1465 15.6833 10.5975 15.8085 11.0735C15.8837 11.3491 15.9087 11.6497 15.9087 11.9253C15.9087 12.2259 15.8837 12.5015 15.8085 12.7771C15.6833 13.2531 15.8586 13.7041 16.2094 14.0047C15.7334 14.9818 14.9567 15.7584 13.9797 16.2344ZM8.56818 3.05647L9.41998 6.56391C8.14227 7.14014 7.14014 8.16731 6.53887 9.44503L3.03142 8.59323C3.98344 6.03781 6.01276 4.00849 8.56818 3.05647ZM3.03142 15.2574L6.53887 14.4056C7.11509 15.6833 8.14227 16.6854 9.41998 17.2867L8.56818 20.7941C6.01276 19.8421 3.98344 17.8128 3.03142 15.2574ZM15.2323 20.7941L14.3805 17.2867C15.6582 16.7105 16.6604 15.6833 17.2616 14.4056L20.7691 15.2574C19.817 17.8128 17.7877 19.8421 15.2323 20.7941Z" fill="#444444"/>
</svg>
